<svg id="Layer_1" data-name="Layer 1" xmlns="http://www.w3.org/2000/svg" width="202.8mm" height="34.07mm" viewBox="0 0 574.86 96.56">
  <title>Pearl Academy Logo</title>
  <g>
    <path d="M47.5,0C73.69,0,95,21.58,95,48.28S73.69,96.56,47.5,96.56,0,74.91,0,48.28,21.23,0,47.5,0Z" style="fill: #ef4637;fill-rule: evenodd"/>
    <polygon points="22.57 65.63 49.81 17.67 55.11 20.78 27.87 68.74 22.57 65.63" style="fill: #fff;fill-rule: evenodd"/>
    <polygon points="31.23 70.71 58.47 22.75 63.77 25.86 36.53 73.82 31.23 70.71" style="fill: #fff;fill-rule: evenodd"/>
    <polygon points="39.88 75.79 67.13 27.83 72.42 30.94 45.18 78.9 39.88 75.79" style="fill: #fff;fill-rule: evenodd"/>
    <path d="M117.29,28H116V24.87h20.5a16.29,16.29,0,0,1,6.57,1.27,16.52,16.52,0,0,1,5.21,3.68A17.39,17.39,0,0,1,152,35.23a16.77,16.77,0,0,1,1.24,6.68,16.43,16.43,0,0,1-4.87,12A15.83,15.83,0,0,1,143,57.57a15.42,15.42,0,0,1-6.46,1.26H120.35V74.26h-3.06V28Zm43.6,30.85a15.44,15.44,0,0,0,1.48,5,17.58,17.58,0,0,0,3.06,4.15,17.72,17.72,0,0,0,4.41,2.76,13.61,13.61,0,0,0,5.21,1,12.49,12.49,0,0,0,5.78-1.27,12.37,12.37,0,0,0,4.64-3.34l.23-.23L188,69.08l-.22.23a17.22,17.22,0,0,1-5.55,4A18.87,18.87,0,0,1,175.05,75a16.93,16.93,0,0,1-6.68-1.38,18.47,18.47,0,0,1-5.55-3.8,18.75,18.75,0,0,1-3.74-5.64,17.93,17.93,0,0,1,0-13.7,18.25,18.25,0,0,1,3.74-5.53,20,20,0,0,1,5.55-3.8,16.93,16.93,0,0,1,6.68-1.38,15.19,15.19,0,0,1,5.55.92,15.77,15.77,0,0,1,4.76,2.54A19.78,19.78,0,0,1,189.1,47l.79,1-1,1c-.79.69-1.47,1.38-2.27,2.07a29.66,29.66,0,0,1-2.94,2.53c-1.13.92-2.27,1.73-3.4,2.53a27.39,27.39,0,0,1-3.74,2,11.92,11.92,0,0,1-4,.69Zm61.28,10.6a17,17,0,0,1-6,3.91,16,16,0,0,1-3.85,1.15,20.69,20.69,0,0,1-3.85.46A17.78,17.78,0,0,1,203,74a14,14,0,0,1-4.53-2.3,11.07,11.07,0,0,1-3.06-3.46A10.33,10.33,0,0,1,194.3,64a9.29,9.29,0,0,1,1-4.14A9,9,0,0,1,198,56.42,12.56,12.56,0,0,1,202.46,54a17.71,17.71,0,0,1,6-.92h13.71v-1.5a9.43,9.43,0,0,0-.91-4.37,7.19,7.19,0,0,0-2.6-2.65,9.68,9.68,0,0,0-3.4-1.38,15.38,15.38,0,0,0-4-.46,23.88,23.88,0,0,0-4.87.57,22.87,22.87,0,0,0-4,1.27v1.38H199.4V42.72l.12-.12A18.16,18.16,0,0,1,202.91,41a24.92,24.92,0,0,1,4.19-1,25.83,25.83,0,0,1,4.19-.34,18.17,18.17,0,0,1,5.1.69,12.44,12.44,0,0,1,4.42,2A9,9,0,0,1,224,45.94a12.16,12.16,0,0,1,1.25,5.64V71h1.24v3.22h-4.3V69.43Zm15.63-19a28.57,28.57,0,0,1,2.37-3.92,36.82,36.82,0,0,1,3.52-3.68,16.8,16.8,0,0,1,4-2.3,11,11,0,0,1,3.85-.81H253V44.1h-3.05v-1a12.09,12.09,0,0,0-2.83,1.15,14.92,14.92,0,0,0-3.4,2.65,24,24,0,0,0-2.95,3.8,23.66,23.66,0,0,0-2.15,4.83,23.62,23.62,0,0,0-.79,5.65V74.26h-3.06V43.52h-1.25V40.41h4.31v10ZM260,28h-1.25V24.87h4.3V74.26H260V28Zm57,33.39H292.39l-5,12.89h-3.28V71h1L303.49,24.3h2.26l19.37,49.38-2.83,1.16L317,61.37Zm37.26-15.2a18.66,18.66,0,0,0-4.08-2.53,15.79,15.79,0,0,0-5.1-.92,15.52,15.52,0,0,0-5.55,1.15A17.68,17.68,0,0,0,335,47a14.3,14.3,0,0,0-3.06,4.73,13.57,13.57,0,0,0-1.13,5.64,13.41,13.41,0,0,0,1.13,5.52A12.71,12.71,0,0,0,335,67.47a14.14,14.14,0,0,0,10.08,4.26,12.49,12.49,0,0,0,5.78-1.27,14.5,14.5,0,0,0,4.64-3.34l.23-.23,2.27,2.3-.12.12a20.29,20.29,0,0,1-5.78,4.14,16,16,0,0,1-7,1.5,17.1,17.1,0,0,1-6.79-1.38,18,18,0,0,1-5.44-3.8,18.94,18.94,0,0,1-3.74-5.64,18.05,18.05,0,0,1,0-13.7,18.94,18.94,0,0,1,3.74-5.64,18,18,0,0,1,5.44-3.8,17.1,17.1,0,0,1,6.79-1.38,16.94,16.94,0,0,1,11.78,4.72l.46.46v2.53h-3.06V46.17ZM370,44.56v1.38h-3.06V42.72l.12-.12A18.16,18.16,0,0,1,370.42,41a26.55,26.55,0,0,1,4.08-1,28.24,28.24,0,0,1,4.3-.34,19.45,19.45,0,0,1,5.1.69,12.44,12.44,0,0,1,4.42,2,9.85,9.85,0,0,1,3.17,3.68,12.15,12.15,0,0,1,1.24,5.64V71H394v3.22h-4.3V69.43a14.64,14.64,0,0,1-2.49,2.07,15.7,15.7,0,0,1-3.63,1.84,15.18,15.18,0,0,1-3.74,1.15A21.87,21.87,0,0,1,376,75a17.78,17.78,0,0,1-5.43-.92,13.86,13.86,0,0,1-4.53-2.3A11.07,11.07,0,0,1,363,68.27,8.77,8.77,0,0,1,361.82,64a10.84,10.84,0,0,1,.9-4.14,10.2,10.2,0,0,1,2.72-3.45A13,13,0,0,1,370,54a17.75,17.75,0,0,1,6-.92h13.71v-1.5a8.3,8.3,0,0,0-1-4.37,6.17,6.17,0,0,0-2.49-2.65,9.42,9.42,0,0,0-3.51-1.38,14,14,0,0,0-3.86-.46A22.19,22.19,0,0,0,370,44.56ZM433.17,71h1.24v3.22H430V66.89a18.91,18.91,0,0,1-2.95,3.8,21.35,21.35,0,0,1-4.75,3.11A14.9,14.9,0,0,1,416.41,75a16.9,16.9,0,0,1-11.78-5.18A20,20,0,0,1,401,64.13a17.71,17.71,0,0,1-1.24-6.79A17.91,17.91,0,0,1,401,50.43a19.84,19.84,0,0,1,3.63-5.64,15.88,15.88,0,0,1,17.67-4,21,21,0,0,1,4.75,3.11,18.63,18.63,0,0,1,2.95,3.8V28h-1.25V24.87h4.42V71Zm10.08-12.21a15.42,15.42,0,0,0,1.47,5,17.58,17.58,0,0,0,3.06,4.15,17.77,17.77,0,0,0,4.42,2.76,14.12,14.12,0,0,0,5.32,1,12.31,12.31,0,0,0,5.66-1.27,13.75,13.75,0,0,0,4.76-3.34l.11-.23,2.27,2.19-.23.23a16,16,0,0,1-5.55,4,18.7,18.7,0,0,1-7,1.61,17.07,17.07,0,0,1-6.79-1.38,18.51,18.51,0,0,1-5.56-3.8,16.56,16.56,0,0,1-3.62-5.64,16.69,16.69,0,0,1,0-13.7,16.46,16.46,0,0,1,3.74-5.53,17.86,17.86,0,0,1,5.44-3.8,17.07,17.07,0,0,1,6.79-1.38,15.07,15.07,0,0,1,5.44.92,15.72,15.72,0,0,1,4.75,2.54A16.83,16.83,0,0,1,471.45,47l.91,1-1.14,1c-.68.69-1.47,1.38-2.26,2.07A31,31,0,0,1,466,53.65c-1.13.92-2.26,1.73-3.4,2.53a27.89,27.89,0,0,1-3.73,2,11.55,11.55,0,0,1-4,.69Zm39.07-10.7a17.34,17.34,0,0,1,2.61-3.8,14.8,14.8,0,0,1,3.74-2.88,11.86,11.86,0,0,1,3.85-1.38,17.16,17.16,0,0,1,3.39-.46,12.79,12.79,0,0,1,8.16,2.53,11,11,0,0,1,3.28,6.56,14.64,14.64,0,0,1,2.72-4.14,12.42,12.42,0,0,1,3.74-3.11,13.77,13.77,0,0,1,3.85-1.38,18.36,18.36,0,0,1,3.51-.46c3.17,0,6.34.8,8.61,3.11s3.06,5.64,3.06,8.86V71h1.24v3.22h-4.3V51.46a11.61,11.61,0,0,0-.91-4.71,6,6,0,0,0-2.72-2.88,9.36,9.36,0,0,0-5-1.15,12.48,12.48,0,0,0-9.74,4.72,14.43,14.43,0,0,0-2.83,5.18,18.54,18.54,0,0,0-1,6.56V74.26h-3.06V51.46a11.6,11.6,0,0,0-.9-4.71,6.07,6.07,0,0,0-2.72-2.88,9.42,9.42,0,0,0-5-1.15A13,13,0,0,0,490.48,44a13.69,13.69,0,0,0-4.31,3.46,16.33,16.33,0,0,0-2.83,5.18,22.11,22.11,0,0,0-1,6.67v15h-3.17V43.52H478V40.41h4.3v7.72Zm58.11,35.46A16.15,16.15,0,0,0,541.78,85a6.15,6.15,0,0,0,1.82,1.15,3.69,3.69,0,0,0,1.92.46,5.2,5.2,0,0,0,1.81-.46,6.93,6.93,0,0,0,2-1.62,14.82,14.82,0,0,0,2-3.22l2.15-4.72-14.49-33h-1.14V40.41h3.17l14.27,32.47,14.84-31.32V40.41h3.06v2L554.13,82.66a13.44,13.44,0,0,1-2.61,4A9.85,9.85,0,0,1,548.58,89a7.51,7.51,0,0,1-3.17.69,6.92,6.92,0,0,1-3.29-.81,9.74,9.74,0,0,1-2.6-1.84,7.18,7.18,0,0,1-1.93-2.19l-.22-.35V82.78h3.06v.81ZM120.35,28V55.72h16.19a12.28,12.28,0,0,0,5.33-1.15,13.56,13.56,0,0,0,4.3-2.87,14.54,14.54,0,0,0,2.94-4.49,13.82,13.82,0,0,0,1-5.3,14.8,14.8,0,0,0-1-5.41,14.21,14.21,0,0,0-7.24-7.37A12.28,12.28,0,0,0,136.54,28ZM185.7,47.67a13.68,13.68,0,0,0-4.65-3.46,13.17,13.17,0,0,0-6-1.38,14,14,0,0,0-5.21,1,17.72,17.72,0,0,0-4.41,2.76,16.14,16.14,0,0,0-3.06,4.26,14,14,0,0,0-1.48,4.83h11.67a11.81,11.81,0,0,0,3.51-.8,23.66,23.66,0,0,0,3.63-2.19A36.51,36.51,0,0,0,183,50.08l2.72-2.41Zm36.47,17.61v-9H208.46a15.06,15.06,0,0,0-5,.69,7.64,7.64,0,0,0-3.4,1.84,6.87,6.87,0,0,0-2,2.42,6.24,6.24,0,0,0-.68,2.76,5.44,5.44,0,0,0,.91,3,7,7,0,0,0,2.38,2.42,11,11,0,0,0,3.51,1.72,18.94,18.94,0,0,0,4.3.58,16.69,16.69,0,0,0,4.08-.46,15.65,15.65,0,0,0,4-1.27,12.7,12.7,0,0,0,3.4-2.07,8.44,8.44,0,0,0,2.27-2.65Zm82.45-35.23-11,28.21h22.09l-11.1-28.21Zm85.06,35.23v-9H376a14.61,14.61,0,0,0-5,.69,8.67,8.67,0,0,0-3.51,1.84,8,8,0,0,0-1.93,2.42,6.24,6.24,0,0,0-.68,2.76,5.44,5.44,0,0,0,.91,3,6.15,6.15,0,0,0,2.38,2.42,10,10,0,0,0,3.51,1.72,17.42,17.42,0,0,0,4.3.58,16.69,16.69,0,0,0,4.08-.46A15.85,15.85,0,0,0,384,70a12.8,12.8,0,0,0,3.39-2.07,8.44,8.44,0,0,0,2.27-2.65Zm13.13-7.94a16.73,16.73,0,0,0,1,5.64,15.32,15.32,0,0,0,2.95,4.6,14.08,14.08,0,0,0,4.3,3,12.9,12.9,0,0,0,10.65,0,13.85,13.85,0,0,0,4.3-3,15.13,15.13,0,0,0,3-4.6,16.43,16.43,0,0,0,0-11.4A15.18,15.18,0,0,0,426,47a16.32,16.32,0,0,0-4.3-3.1,12.9,12.9,0,0,0-10.65,0,16.65,16.65,0,0,0-4.3,3.1,15.37,15.37,0,0,0-2.95,4.61,16.88,16.88,0,0,0-1,5.76Zm65.24-9.67a14.49,14.49,0,0,0-4.53-3.46,13.85,13.85,0,0,0-6-1.38,14.12,14.12,0,0,0-5.32,1,15.4,15.4,0,0,0-4.31,2.76,14.36,14.36,0,0,0-3.17,4.26,14,14,0,0,0-1.47,4.83h11.66a12,12,0,0,0,3.52-.8,23.56,23.56,0,0,0,3.62-2.19,35.15,35.15,0,0,0,3.28-2.65Z" style="fill: var(--logo-fill,#0f1013);fill-rule: evenodd"/>
    <path d="M115.7,29.59h-1.24V23.26h22.08a19.23,19.23,0,0,1,3.61.32,16.66,16.66,0,0,1,3.58,1.08l.05,0a21.15,21.15,0,0,1,3,1.71,15.39,15.39,0,0,1,2.71,2.33,19.07,19.07,0,0,1,2.22,2.73,20.79,20.79,0,0,1,1.69,3.13,15.5,15.5,0,0,1,1.07,3.62,21.38,21.38,0,0,1,.32,3.71,20.41,20.41,0,0,1-.32,3.66,15.39,15.39,0,0,1-1.07,3.55,21.23,21.23,0,0,1-1.69,3.17A15.47,15.47,0,0,1,149.44,55a15.57,15.57,0,0,1-2.69,2.31,21.1,21.1,0,0,1-3.11,1.7,15.6,15.6,0,0,1-3.5,1.1,19.75,19.75,0,0,1-3.6.32H121.93V75.87H115.7V29.59Zm26.77-2a10.21,10.21,0,0,0-1-.38,9.79,9.79,0,0,1,1,.42A14.71,14.71,0,0,1,145,29.07a13.3,13.3,0,0,1,1.12.86,12,12,0,0,0-1.14-.88,17.42,17.42,0,0,0-2.53-1.44Zm20.34,32.84.13.44a12.82,12.82,0,0,0,.82,2.13,15.94,15.94,0,0,0,2.71,3.7,15.93,15.93,0,0,0,1.91,1.39,16.61,16.61,0,0,0,2.08,1.1,12.36,12.36,0,0,0,2.25.68,12,12,0,0,0,2.34.23,12.7,12.7,0,0,0,2.66-.26,9.6,9.6,0,0,0,2.41-.84l.08,0a14.47,14.47,0,0,0,2.26-1.26,9.08,9.08,0,0,0,1.8-1.65l.09-.1,1.32-1.34,4.56,4.41-1.37,1.4a18.62,18.62,0,0,1-2.79,2.47,19.11,19.11,0,0,1-7,3.15,23.88,23.88,0,0,1-3.91.49h-.07a18.11,18.11,0,0,1-3.71-.38,18.8,18.8,0,0,1-3.58-1.13h0a21.59,21.59,0,0,1-3.26-1.82h0a18.86,18.86,0,0,1-2.77-2.31h0a18.93,18.93,0,0,1-2.27-2.82,21.55,21.55,0,0,1-1.79-3.31v0a18.18,18.18,0,0,1-1.11-3.64,18.76,18.76,0,0,1-.38-3.77,19.73,19.73,0,0,1,.37-3.86,18.43,18.43,0,0,1,1.12-3.67v0a19.74,19.74,0,0,1,1.75-3.2,20.89,20.89,0,0,1,2.31-2.82l0,0a22.93,22.93,0,0,1,2.84-2.32,20.47,20.47,0,0,1,3.15-1.77l0,0a18.88,18.88,0,0,1,7.29-1.51,19.22,19.22,0,0,1,3,.22,15.39,15.39,0,0,1,3,.79,18.59,18.59,0,0,1,2.68,1.14,17.32,17.32,0,0,1,2.53,1.64,21.76,21.76,0,0,1,2.11,1.86h0A23.2,23.2,0,0,1,190.35,46L192,48.14c-.69.71-1.38,1.45-2.09,2.13-.46.4-.78.7-1.11,1h0c-.35.33-.71.67-1.12,1a31.57,31.57,0,0,1-3,2.61h0c-.61.49-1.18.92-1.74,1.34l-1.72,1.23-.06,0a22.89,22.89,0,0,1-2,1.15c-.74.37-1.34.65-1.93.92l-.15.06a15.75,15.75,0,0,1-2.21.58,13.07,13.07,0,0,1-2.25.2Zm3.91,10.4c-.24-.15-.48-.3-.71-.46l.23.16A17.71,17.71,0,0,0,169,72.09a15.68,15.68,0,0,0,3,.94,14.09,14.09,0,0,0,1.45.22,12,12,0,0,1-1.32-.2,15.51,15.51,0,0,1-2.85-.87h0a19.1,19.1,0,0,1-2.5-1.31Zm8.36,2.49h0ZM183.9,51.4a20.24,20.24,0,0,0,1.52-1.35L183.9,51.4Zm36.68,21.42-.07,0A16,16,0,0,1,218.68,74a18.64,18.64,0,0,1-1.9.84,14.08,14.08,0,0,1-2.11.77c-.68.2-1.39.35-2.07.48h0a22.45,22.45,0,0,1-4.11.48,16.77,16.77,0,0,1-3-.27,21.36,21.36,0,0,1-2.89-.71,15.09,15.09,0,0,1-2.62-1,16.07,16.07,0,0,1-2.4-1.5,11.79,11.79,0,0,1-1.95-1.78,12.7,12.7,0,0,1-1.55-2.17l0,0a10.42,10.42,0,0,1-.92-2.36,14.45,14.45,0,0,1-.41-2.55V64a10.47,10.47,0,0,1,.3-2.46,12.11,12.11,0,0,1,.87-2.37,9.58,9.58,0,0,1,1.26-2.11h0A12.32,12.32,0,0,1,197,55.19a10.92,10.92,0,0,1,2.39-1.64,20.47,20.47,0,0,1,2.52-1.07h0a17,17,0,0,1,3.27-.8,24.13,24.13,0,0,1,3.26-.22h12.12a10.83,10.83,0,0,0-.19-2A4.64,4.64,0,0,0,219,46.85a5.63,5.63,0,0,0-1.17-.91l-.06,0a7.23,7.23,0,0,0-1.29-.68,9,9,0,0,0-1.54-.47h-.07a11.6,11.6,0,0,0-1.77-.32,15,15,0,0,0-1.82-.09,19.35,19.35,0,0,0-2.14.13,22.15,22.15,0,0,0-2.35.4c-.68.17-1.35.34-2,.52-.27.08-.54.17-.8.27v1.9h-6.23V42.06l.69-.71.13-.09a16.46,16.46,0,0,1,3.27-1.6h0l.51-.21c.72-.24,1.44-.46,2.17-.64s1.51-.34,2.28-.46,1.47-.21,2.18-.27,1.53-.1,2.24-.1a20.75,20.75,0,0,1,2.84.2,18,18,0,0,1,2.67.55,12.67,12.67,0,0,1,2.52.85,16.11,16.11,0,0,1,2.37,1.32,11.2,11.2,0,0,1,2.18,2,10.13,10.13,0,0,1,1.55,2.41,12.26,12.26,0,0,1,1,2.92,15.61,15.61,0,0,1,.35,3.39V69.42h1.25v6.45h-7.48V72.82ZM239.38,45c.42-.48.86-1,1.33-1.46.64-.66,1.28-1.29,1.91-1.87l.14-.11a22.26,22.26,0,0,1,2-1.37A16,16,0,0,1,247.09,39h0a17.33,17.33,0,0,1,2.08-.64,10.57,10.57,0,0,1,2.31-.27h3.06v7.6h-6.23v-.33l-.49.24a11.38,11.38,0,0,0-1.57,1.06A15,15,0,0,0,244.81,48h0a16.14,16.14,0,0,0-1.42,1.66c-.45.58-.87,1.2-1.29,1.84A18.27,18.27,0,0,0,241,53.65a23,23,0,0,0-.85,2.24c-.22.87-.4,1.74-.54,2.62a17.5,17.5,0,0,0-.21,2.63V75.87h-6.23V45.13h-1.24V38.8h7.47V45ZM236.46,58c.1-.69.24-1.38.39-2.06L236.33,57v2c0-.33.08-.67.13-1Zm22-28.44h-1.25V23.26h7.48V75.87h-6.23V29.59ZM315.9,63H293.47l-5,12.89h-6V69.42h1.54l18.35-46.74h4.4q10.17,26,20.35,51.9l-5.76,2.35L315.9,63Zm-25-2.2.4-1h0l9.47-24.33L286.21,72.65h.12l4.58-11.87ZM352.64,47v2h6.23V44.12l-1-1A19.34,19.34,0,0,0,355.18,41a18.79,18.79,0,0,0-3.07-1.62l0,0a19.6,19.6,0,0,0-3.41-1,18.15,18.15,0,0,0-3.62-.37,19.11,19.11,0,0,0-3.79.38,18.64,18.64,0,0,0-3.61,1.14h0a19,19,0,0,0-3.14,1.78,19.25,19.25,0,0,0-2.77,2.35h0a19.53,19.53,0,0,0-2.27,2.81h0a21.92,21.92,0,0,0-1.79,3.3v0a19.11,19.11,0,0,0-1.12,3.67,19.73,19.73,0,0,0-.37,3.86,19.45,19.45,0,0,0,1.49,7.41v0a22,22,0,0,0,1.79,3.31h0a18.92,18.92,0,0,0,2.27,2.8h0a19.76,19.76,0,0,0,2.76,2.34A19.43,19.43,0,0,0,337.62,75h0a18.64,18.64,0,0,0,3.61,1.14,19.1,19.1,0,0,0,3.79.37,19.43,19.43,0,0,0,4-.41,16.28,16.28,0,0,0,3.66-1.24A22.09,22.09,0,0,0,356,73,23,23,0,0,0,359,70.45l1.24-1.25-4.51-4.58L354.31,66a11.76,11.76,0,0,1-1.93,1.7A15.78,15.78,0,0,1,350.16,69h0a9.6,9.6,0,0,1-2.41.84,12.7,12.7,0,0,1-2.66.26,12.12,12.12,0,0,1-2.5-.25,10.91,10.91,0,0,1-2.41-.77l-.05,0A10.52,10.52,0,0,1,338,68a12.29,12.29,0,0,1-1.9-1.62l-.05,0a10,10,0,0,1-1.51-1.78,12.86,12.86,0,0,1-1.16-2.24l0-.08a10.65,10.65,0,0,1-.73-2.26,13.12,13.12,0,0,1-.25-2.58,13.77,13.77,0,0,1,.25-2.68,11.09,11.09,0,0,1,.73-2.29l0-.08a13.06,13.06,0,0,1,1.15-2.23,12.47,12.47,0,0,1,1.56-2A17.3,17.3,0,0,1,338,46.58a15.88,15.88,0,0,1,2.09-1.22,17.88,17.88,0,0,1,2.47-.75,11.52,11.52,0,0,1,2.49-.28,12.21,12.21,0,0,1,2.27.21,18.16,18.16,0,0,1,2.22.58,19.65,19.65,0,0,1,1.92,1c.41.26.8.52,1.18.8ZM338.92,72.07a15,15,0,0,0,2.65.89,15.75,15.75,0,0,1-2.7-.87q-.54-.24-1.08-.54c.37.19.74.36,1.13.52Zm9.42,1a12.61,12.61,0,0,0,3.19-1.12,17.65,17.65,0,0,0,1.66-.89,19.42,19.42,0,0,1-1.79,1,13.24,13.24,0,0,1-3,1,16.21,16.21,0,0,1-2,.29,15.4,15.4,0,0,0,1.91-.27Zm23.22-27.37v1.9h-6.23V42.06l.69-.71.13-.09a16.82,16.82,0,0,1,3.28-1.6l.5-.2c.75-.25,1.47-.47,2.15-.64s1.43-.33,2.17-.46h0c.76-.12,1.53-.21,2.29-.27s1.53-.1,2.24-.1a20.16,20.16,0,0,1,2.76.2,20.62,20.62,0,0,1,2.73.55,12.43,12.43,0,0,1,2.54.85,14.79,14.79,0,0,1,2.36,1.32,10.6,10.6,0,0,1,2.13,1.93,12.55,12.55,0,0,1,1.56,2.34h0a11.48,11.48,0,0,1,1.08,3,15.79,15.79,0,0,1,.36,3.4V69.42h1.25v6.45h-7.48V72.82l-.07,0A14.14,14.14,0,0,1,386.11,74a20.7,20.7,0,0,1-1.93.82,17,17,0,0,1-2,.77,20.15,20.15,0,0,1-2,.48c-.65.12-1.33.24-2,.33a16,16,0,0,1-2.13.16,16.77,16.77,0,0,1-3-.27,21.36,21.36,0,0,1-2.89-.71,15.09,15.09,0,0,1-2.62-1,16.07,16.07,0,0,1-2.4-1.5,11.79,11.79,0,0,1-1.95-1.78,12.86,12.86,0,0,1-1.55-2.16l0,0a11.32,11.32,0,0,1-1-2.33,10.12,10.12,0,0,1-.37-2.7,11.33,11.33,0,0,1,.28-2.43,15,15,0,0,1,.75-2.33l.05-.1A12.09,12.09,0,0,1,362.68,57a11.78,11.78,0,0,1,1.75-1.78,13.07,13.07,0,0,1,2.43-1.63,18.65,18.65,0,0,1,2.59-1.07,16.69,16.69,0,0,1,3.26-.8,24.13,24.13,0,0,1,3.26-.22h12.12a9.13,9.13,0,0,0-.17-1.82,4.79,4.79,0,0,0-.6-1.57l-.08-.15a4.07,4.07,0,0,0-.76-1.1,5.39,5.39,0,0,0-1.12-.88l-.07,0a7.18,7.18,0,0,0-1.32-.69,8.62,8.62,0,0,0-1.6-.45l-.13,0a10.74,10.74,0,0,0-1.64-.31,14.65,14.65,0,0,0-1.8-.09,19.2,19.2,0,0,0-2.3.14q-1.12.15-2.34.39l-.32.09c-.75.21-1.53.42-2.28.7Zm63.2,23.77H436v6.45h-7.59V71.58l-.33.34A23.72,23.72,0,0,1,423,75.26l-.07,0a17.15,17.15,0,0,1-10.16.87,16.33,16.33,0,0,1-3.57-1.25,15.77,15.77,0,0,1-3-1.68,16.54,16.54,0,0,1-2.67-2.36A20.82,20.82,0,0,1,401.23,68a23.83,23.83,0,0,1-1.67-3.17v0a16.89,16.89,0,0,1-1.07-3.7,21.11,21.11,0,0,1-.31-3.71,22,22,0,0,1,.31-3.82,16.81,16.81,0,0,1,1.07-3.71v0a22.66,22.66,0,0,1,1.67-3.17,20.82,20.82,0,0,1,2.24-2.92,16.38,16.38,0,0,1,5.7-4,16.83,16.83,0,0,1,3.57-1.24,16.32,16.32,0,0,1,3.67-.41,17.09,17.09,0,0,1,3.27.31,16.24,16.24,0,0,1,3.22,1l.07,0a23.72,23.72,0,0,1,5.11,3.34l.33.34V29.59h-1.24V23.26h7.59V69.42Zm-3.83-7.35.65-1.14V57.57a17.39,17.39,0,0,1-.29,2.91,15.15,15.15,0,0,1-.36,1.59Zm-11.83,11h0a15.62,15.62,0,0,1-1.9.23,13.91,13.91,0,0,0,1.86-.22Zm12.48-19.48-.65-1.14c.15.54.27,1.09.37,1.64a18.87,18.87,0,0,1,.28,3V53.62Zm13.59,6.83.12.44a14,14,0,0,0,.85,2.18A15,15,0,0,0,447.35,65a16.47,16.47,0,0,0,1.51,1.77,16.18,16.18,0,0,0,1.87,1.36,15.38,15.38,0,0,0,2.09,1.1,11.94,11.94,0,0,0,2.28.67,12.19,12.19,0,0,0,2.42.24,11.93,11.93,0,0,0,2.55-.26,9.14,9.14,0,0,0,2.4-.84l.08,0a13.63,13.63,0,0,0,2.29-1.27,10.68,10.68,0,0,0,1.79-1.53l1-2,5,4.83-1.34,1.36a19.43,19.43,0,0,1-2.79,2.52h0a15.87,15.87,0,0,1-3.26,1.87,18.09,18.09,0,0,1-3.78,1.27,23.21,23.21,0,0,1-3.82.49h-.07a19,19,0,0,1-3.79-.37,18.73,18.73,0,0,1-3.62-1.14h0a21.59,21.59,0,0,1-3.26-1.82,18.75,18.75,0,0,1-2.77-2.31,18.36,18.36,0,0,1-2.3-2.89h0a17.43,17.43,0,0,1-1.64-3.22,16.62,16.62,0,0,1-1.19-3.7,25.77,25.77,0,0,1-.42-3.68v-.15a25.71,25.71,0,0,1,.42-3.78,16.44,16.44,0,0,1,1.2-3.74,20.16,20.16,0,0,1,1.69-3.14,16.11,16.11,0,0,1,2.4-2.87,19.87,19.87,0,0,1,2.73-2.31,19.38,19.38,0,0,1,3.15-1.78l0,0a18.14,18.14,0,0,1,3.61-1.13,19.21,19.21,0,0,1,3.8-.38,19,19,0,0,1,3,.23,14.25,14.25,0,0,1,3,.78,18.13,18.13,0,0,1,2.68,1.14,17.41,17.41,0,0,1,2.54,1.64,21.7,21.7,0,0,1,2.13,1.85A15.58,15.58,0,0,1,472.7,46l1.88,2.16-2.3,2.1c-.7.71-1.47,1.39-2.24,2.06h0a30,30,0,0,1-3,2.6h0c-.61.49-1.19.93-1.75,1.35l-1.72,1.23-.06,0a22.89,22.89,0,0,1-2,1.15c-.73.37-1.33.65-1.92.92l-.11,0a13.25,13.25,0,0,1-2.2.59,13.86,13.86,0,0,1-2.31.2Zm3.9,10.4c-.31-.2-.62-.4-.92-.62l.44.31a18.21,18.21,0,0,0,2.78,1.56,15.2,15.2,0,0,0,5.18,1.21,16,16,0,0,1-2.05-.26,15,15,0,0,1-2.89-.87h0a18.83,18.83,0,0,1-2.51-1.32Zm8.47,2.49h0Zm8.7-21.92c.55-.45,1.08-.91,1.55-1.38l-1.55,1.38Zm17.67-8.33a19.17,19.17,0,0,1,1.84-1.65,12.88,12.88,0,0,1,2.16-1.4,14.63,14.63,0,0,1,2.11-1,12.49,12.49,0,0,1,2.2-.58,18,18,0,0,1,3.69-.5,17.08,17.08,0,0,1,5,.72,12.12,12.12,0,0,1,4.12,2.18l.07,0a10.71,10.71,0,0,1,2.57,3.49l.14.3a14.77,14.77,0,0,1,1-1.22,14.51,14.51,0,0,1,1.91-1.93A15.06,15.06,0,0,1,513.06,40l0,0a20.69,20.69,0,0,1,2-.89,12.3,12.3,0,0,1,2.25-.63c.57-.12,1.17-.24,1.84-.33a13.7,13.7,0,0,1,2-.17,16,16,0,0,1,5.45.89,11.22,11.22,0,0,1,4.28,2.7A11.49,11.49,0,0,1,533.55,46a17.37,17.37,0,0,1,.87,5.62V69.42h1.25v6.45h-7.48V51.46a12.32,12.32,0,0,0-.2-2.23,7.78,7.78,0,0,0-.56-1.81h0a4.2,4.2,0,0,0-.8-1.2,5.1,5.1,0,0,0-1.23-.93l-.08-.05a5.8,5.8,0,0,0-1.88-.7,11.48,11.48,0,0,0-2.27-.2,10.32,10.32,0,0,0-2.44.29,11.71,11.71,0,0,0-2.33.82,10.24,10.24,0,0,0-2,1.26,12.91,12.91,0,0,0-1.76,1.78,14,14,0,0,0-1.56,2.26,12.27,12.27,0,0,0-1,2.33l-.05.13a13.48,13.48,0,0,0-.71,2.88,22.74,22.74,0,0,0-.19,3.1V75.87h-6.23V51.46a11.54,11.54,0,0,0-.21-2.24,8.35,8.35,0,0,0-.55-1.8h0a4.17,4.17,0,0,0-.79-1.2,5.16,5.16,0,0,0-1.24-.93l-.07,0a5.82,5.82,0,0,0-1.89-.71,11.41,11.41,0,0,0-2.27-.2,10.81,10.81,0,0,0-2.38.28,12,12,0,0,0-2.38.83,11,11,0,0,0-2,1.3,11.6,11.6,0,0,0-1.77,1.74,13.27,13.27,0,0,0-1.45,2.15,17.78,17.78,0,0,0-1.09,2.5,21.32,21.32,0,0,0-.7,3,21,21,0,0,0-.23,3.13V75.87h-6.34V45.13h-1.14V38.8h7.48v4.29Zm19.12.26a8.54,8.54,0,0,0-1.3-.85,8.22,8.22,0,0,1,1.83,1.38,6.62,6.62,0,0,0-.53-.53Zm3.6,10.25-.55-3c0,.31,0,.61,0,.89v5.15c0-.32.07-.65.11-1a17.8,17.8,0,0,1,.41-2ZM481,55.67c.11-.75.26-1.48.44-2.2l-.72,1.46v4.14a23,23,0,0,1,.28-3.4ZM542,83l0,0a5.9,5.9,0,0,0,.7.71l0,0c.24.2.48.39.75.58h0a2.37,2.37,0,0,0,.56.3l.18.06.14.09a1.62,1.62,0,0,0,.44.16,2.87,2.87,0,0,0,.67.07,1.82,1.82,0,0,0,.49-.09c.22-.06.47-.15.71-.24h0a3,3,0,0,0,.69-.47c.29-.24.56-.51.8-.75a11.81,11.81,0,0,0,.92-1.29,16.28,16.28,0,0,0,.85-1.56l1.84-4L538,45.13h-1.69V38.8h5.78l13.3,30.26,13.2-27.86V38.8h6.23v3.93L555.57,83.34a19.37,19.37,0,0,1-1.24,2.33,13,13,0,0,1-1.65,2.13,11.86,11.86,0,0,1-1.54,1.46h0a10.85,10.85,0,0,1-1.84,1.17l-.07,0a9,9,0,0,1-1.85.63h0a9.12,9.12,0,0,1-2,.21,8.41,8.41,0,0,1-2-.23h0a8.84,8.84,0,0,1-2-.75,13.55,13.55,0,0,1-1.53-.9,11.54,11.54,0,0,1-1.4-1.15,7.68,7.68,0,0,1-1.21-1.14,8.3,8.3,0,0,1-1-1.42l-.48-.72V81.17H542V83ZM121.93,29.59V54.11h14.61a11.71,11.71,0,0,0,2.45-.25,10.11,10.11,0,0,0,2.21-.75l.05,0a13.16,13.16,0,0,0,2-1.09A10,10,0,0,0,145,50.6a19.14,19.14,0,0,0,1.54-1.93,11.27,11.27,0,0,0,1.1-2.06v0a11.21,11.21,0,0,0,.66-2.22,13.21,13.21,0,0,0,.23-2.45,13.4,13.4,0,0,0-.23-2.46,13.1,13.1,0,0,0-.66-2.32,12.89,12.89,0,0,0-1.1-2,13.93,13.93,0,0,0-1.51-1.84h0a12,12,0,0,0-1.81-1.53,12.3,12.3,0,0,0-2-1.12l-.05,0a10.39,10.39,0,0,0-2.2-.75,11.8,11.8,0,0,0-2.46-.25Zm61.44,18c-.25-.22-.5-.43-.77-.63a11.24,11.24,0,0,0-2.18-1.28l-.07,0a10.8,10.8,0,0,0-2.5-.9,12.08,12.08,0,0,0-2.8-.31,12.51,12.51,0,0,0-4.59.91,16,16,0,0,0-2.08,1.1,16.29,16.29,0,0,0-1.87,1.36A15.86,15.86,0,0,0,165,49.58a13.6,13.6,0,0,0-1.21,2l0,0a11.2,11.2,0,0,0-.83,2l-.12.42h9.74a12.46,12.46,0,0,0,1.47-.23,9.5,9.5,0,0,0,1.43-.44,15.46,15.46,0,0,0,1.66-.91c.62-.38,1.17-.75,1.68-1.11s1-.76,1.57-1.2,1.06-.88,1.57-1.34l1.44-1.28Zm37.21,17.25V57.91H208.46a20.09,20.09,0,0,0-2.31.12,10,10,0,0,0-2.14.48l-.11,0a8,8,0,0,0-1.61.63,4.65,4.65,0,0,0-1.09.8l-.07.07-.1.08a6.08,6.08,0,0,0-.94.88,4.47,4.47,0,0,0-.63,1,5.12,5.12,0,0,0-.39,1.05,4.19,4.19,0,0,0-.12,1,3.74,3.74,0,0,0,.16,1.1,4.55,4.55,0,0,0,.5,1l0,.07a4.16,4.16,0,0,0,.72.93h0a6.63,6.63,0,0,0,1.11.9l.07,0a10.94,10.94,0,0,0,1.51.9,7.65,7.65,0,0,0,1.45.57c.7.17,1.39.3,2.05.4a15.46,15.46,0,0,0,1.9.14,18.66,18.66,0,0,0,1.88-.09,13.43,13.43,0,0,0,1.82-.33l.13,0a12.85,12.85,0,0,0,1.73-.43,15.46,15.46,0,0,0,1.83-.72,16.86,16.86,0,0,0,1.65-.83,7.23,7.23,0,0,0,1.35-1l.1-.08a6.15,6.15,0,0,0,1-1,6.7,6.7,0,0,0,.61-.82Zm84-30.44L296,56.64h17.41l-8.75-22.23Zm83.46,30.44V57.91H376a20.09,20.09,0,0,0-2.35.12,9.86,9.86,0,0,0-2.1.48l-.11,0a7.77,7.77,0,0,0-1.63.64,5.73,5.73,0,0,0-1.26.86h0a7.64,7.64,0,0,0-.93,1,6,6,0,0,0-.61,1h0a5.12,5.12,0,0,0-.39,1.05,4.19,4.19,0,0,0-.12,1,3.74,3.74,0,0,0,.16,1.1,4.69,4.69,0,0,0,.5,1l0,.08a5,5,0,0,0,.76,1,4.74,4.74,0,0,0,1,.77l.13.08.07.05a7,7,0,0,0,1.33.83,8.82,8.82,0,0,0,1.59.61,17.11,17.11,0,0,0,2,.4,14.23,14.23,0,0,0,1.88.13c.65,0,1.28,0,1.88-.09a13.43,13.43,0,0,0,1.82-.33l.13,0a12.49,12.49,0,0,0,1.73-.43,15.46,15.46,0,0,0,1.83-.72A16.86,16.86,0,0,0,385,67.7a7.23,7.23,0,0,0,1.35-1l.1-.08a6.66,6.66,0,0,0,1-1h0a6.7,6.7,0,0,0,.61-.82Zm16.31-7.51a14.57,14.57,0,0,0,.23,2.55,15.53,15.53,0,0,0,.67,2.49,11.76,11.76,0,0,0,1.12,2.14,15.32,15.32,0,0,0,1.48,1.92A12.08,12.08,0,0,0,409.71,68a11.89,11.89,0,0,0,2,1.12l.05,0a10.18,10.18,0,0,0,2.2.74,11.72,11.72,0,0,0,4.91,0,10,10,0,0,0,2.2-.74l.05,0a11.51,11.51,0,0,0,2-1.12,13.36,13.36,0,0,0,1.82-1.54,16.33,16.33,0,0,0,1.48-1.92,11.72,11.72,0,0,0,1.11-2.14,14.76,14.76,0,0,0,.9-5,15,15,0,0,0-.9-5.16A11.72,11.72,0,0,0,426.4,50a16.44,16.44,0,0,0-1.48-1.93,11.46,11.46,0,0,0-6.26-3.53,10.25,10.25,0,0,0-4.5,0,14.51,14.51,0,0,0-2.4.75,14.94,14.94,0,0,0-2.08,1.26,14.42,14.42,0,0,0-1.78,1.52A15.42,15.42,0,0,0,406.42,50a11.76,11.76,0,0,0-1.12,2.14,14.52,14.52,0,0,0-.67,2.51,15.28,15.28,0,0,0-.23,2.65Zm61.33-9.74c-.25-.22-.51-.44-.77-.63a11.32,11.32,0,0,0-2.11-1.3h0a12.39,12.39,0,0,0-2.62-.92,11.67,11.67,0,0,0-2.71-.31,12.6,12.6,0,0,0-4.7.91,15,15,0,0,0-2.1,1.11A13.89,13.89,0,0,0,449,47.81a14.06,14.06,0,0,0-1.6,1.79,13.87,13.87,0,0,0-1.23,2v0a10.53,10.53,0,0,0-.83,2l-.12.42h9.74a13.14,13.14,0,0,0,1.47-.23,8.85,8.85,0,0,0,1.41-.44,14.53,14.53,0,0,0,1.67-.91c.62-.38,1.18-.75,1.69-1.11s1-.76,1.57-1.21,1.06-.88,1.56-1.33Z" style="fill: var(--logo-fill,#231f20);fill-rule: evenodd"/>
  </g>
</svg>
